<svg width="1584" height="396" viewBox="0 0 1584 396" fill="none" xmlns="http://www.w3.org/2000/svg">
<rect width="1584" height="396" fill="#F5F5F5"/>
<g id="Awesome banner" clip-path="url(#clip0_0_1)">
<rect width="1584" height="396" fill="url(#paint0_linear_0_1)"/>
<ellipse id="Ellipse 2" cx="323" cy="64" rx="285" ry="288" fill="url(#paint1_linear_0_1)" fill-opacity="0.1"/>
<g id="copyright">
<path d="M75.95 334.52L72.30 334.52L72.30 311.16L77.20 311.16L83.70 330.04Q83.60 329.02 83.50 327.62Q83.41 326.23 83.33 324.79Q83.25 323.35 83.25 322.23L83.25 311.16L86.90 311.16L86.90 334.52L82 334.52L75.57 315.64Q75.63 316.57 75.73 317.88Q75.82 319.19 75.89 320.57Q75.95 321.94 75.95 323.10L75.95 334.52M98.80 334.84Q96.46 334.84 94.67 333.96Q92.88 333.08 91.89 331.53Q90.90 329.98 90.90 327.93Q90.90 325.78 92.13 324.18Q93.36 322.58 95.34 322.17L95.34 322.10Q93.65 321.75 92.61 320.38Q91.57 319 91.57 317.11Q91.57 315.26 92.48 313.85Q93.39 312.44 95.02 311.64Q96.66 310.84 98.80 310.84Q100.94 310.84 102.59 311.64Q104.24 312.44 105.15 313.85Q106.06 315.26 106.06 317.11Q106.06 319 105.01 320.38Q103.95 321.75 102.26 322.10L102.26 322.17Q104.24 322.58 105.47 324.18Q106.70 325.78 106.70 327.93Q106.70 329.98 105.71 331.53Q104.72 333.08 102.93 333.96Q101.14 334.84 98.80 334.84M98.80 320.73Q100.30 320.73 101.23 319.82Q102.16 318.90 102.16 317.46Q102.16 315.99 101.23 315.08Q100.30 314.17 98.80 314.17Q97.30 314.17 96.37 315.08Q95.44 315.99 95.44 317.46Q95.44 318.90 96.37 319.82Q97.30 320.73 98.80 320.73M98.80 331.45Q100.56 331.45 101.68 330.42Q102.80 329.40 102.80 327.74Q102.80 326.04 101.68 325Q100.56 323.96 98.80 323.96Q97.04 323.96 95.92 325Q94.80 326.04 94.80 327.74Q94.80 329.40 95.92 330.42Q97.04 331.45 98.80 331.45M114.35 334.52L110.70 334.52L110.70 311.16L115.60 311.16L122.10 330.04Q122 329.02 121.90 327.62Q121.81 326.23 121.73 324.79Q121.65 323.35 121.65 322.23L121.65 311.16L125.30 311.16L125.30 334.52L120.40 334.52L113.97 315.64Q114.03 316.57 114.13 317.88Q114.22 319.19 114.29 320.57Q114.35 321.94 114.35 323.10" fill="white" fill-opacity="0.9"/>
<path d="M161.48 325.24L151.24 325.24L151.24 322.68L161.48 322.68" fill="white" fill-opacity="0.9"/>
<path d="M195.02 334.84Q191.82 334.84 189.96 333.05Q188.11 331.26 188.11 328.12L188.11 317.56Q188.11 314.42 189.96 312.63Q191.82 310.84 195.02 310.84Q198.15 310.84 200.01 312.65Q201.87 314.46 201.87 317.56L198.99 317.56Q198.99 315.58 197.95 314.50Q196.91 313.43 195.02 313.43Q193.13 313.43 192.06 314.50Q190.99 315.58 190.99 317.56L190.99 328.12Q190.99 330.10 192.06 331.18Q193.13 332.25 195.02 332.25Q196.91 332.25 197.95 331.18Q198.99 330.10 198.99 328.12L201.87 328.12Q201.87 331.22 200.01 333.03Q198.15 334.84 195.02 334.84" fill="white" fill-opacity="0.9"/>
<path d="M213.96 334.84Q210.83 334.84 209 333.02Q207.18 331.19 207.18 327.80L207.18 317.88Q207.18 314.49 209 312.66Q210.83 310.84 213.96 310.84Q217.10 310.84 218.92 312.66Q220.75 314.49 220.75 317.85L220.75 327.80Q220.75 331.19 218.92 333.02Q217.10 334.84 213.96 334.84M213.96 332.25Q215.85 332.25 216.86 331.18Q217.87 330.10 217.87 328.12L217.87 317.56Q217.87 315.58 216.86 314.50Q215.85 313.43 213.96 313.43Q212.11 313.43 211.08 314.50Q210.06 315.58 210.06 317.56L210.06 328.12Q210.06 330.10 211.08 331.18Q212.11 332.25 213.96 332.25" fill="white" fill-opacity="0.9"/>
<path d="M228.65 334.52L225.87 334.52L225.87 311.16L230.12 311.16L233.10 321.27L236.20 311.16L240.46 311.16L240.46 334.52L237.67 334.52L237.67 323.48Q237.67 321.91 237.72 319.88Q237.77 317.85 237.87 315.77Q237.96 313.69 238.09 312.02L234.31 324.09L231.82 324.09L228.20 312.31Q228.46 314.68 228.55 317.50Q228.65 320.31 228.65 323.48" fill="white" fill-opacity="0.9"/>
<path d="M247.85 334.52L245.07 334.52L245.07 311.16L249.32 311.16L252.30 321.27L255.40 311.16L259.66 311.16L259.66 334.52L256.87 334.52L256.87 323.48Q256.87 321.91 256.92 319.88Q256.97 317.85 257.07 315.77Q257.16 313.69 257.29 312.02L253.51 324.09L251.02 324.09L247.40 312.31Q247.66 314.68 247.75 317.50Q247.85 320.31 247.85 323.48" fill="white" fill-opacity="0.9"/>
<path d="M271.56 334.84Q268.30 334.84 266.57 333.03Q264.84 331.22 264.84 328.12L264.84 311.16L267.72 311.16L267.72 328.12Q267.72 330.04 268.67 331.16Q269.61 332.28 271.56 332.28Q273.48 332.28 274.44 331.16Q275.40 330.04 275.40 328.12L275.40 311.16L278.28 311.16L278.28 328.12Q278.28 331.26 276.57 333.05Q274.86 334.84 271.56 334.84" fill="white" fill-opacity="0.9"/>
<path d="M286.83 334.52L284.04 334.52L284.04 311.16L287.88 311.16L295.02 331.16Q294.95 330.36 294.87 329.19Q294.79 328.02 294.75 326.73Q294.70 325.43 294.70 324.28L294.70 311.16L297.48 311.16L297.48 334.52L293.64 334.52L286.54 314.52Q286.60 315.29 286.67 316.46Q286.73 317.62 286.78 318.92Q286.83 320.22 286.83 321.40" fill="white" fill-opacity="0.9"/>
<path d="M316.20 334.52L303.72 334.52L303.72 331.90L308.49 331.90L308.49 313.78L303.72 313.78L303.72 311.16L316.20 311.16L316.20 313.78L311.43 313.78L311.43 331.90L316.20 331.90" fill="white" fill-opacity="0.9"/>
<path d="M330.60 334.52L327.72 334.52L327.72 313.78L321.32 313.78L321.32 311.16L337 311.16L337 313.78L330.60 313.78" fill="white" fill-opacity="0.9"/>
<path d="M349.80 334.52L346.92 334.52L346.92 325.78L339.88 311.16L342.95 311.16L347.50 320.76Q347.88 321.56 348.11 322.12Q348.33 322.68 348.39 322.94Q348.46 322.68 348.70 322.12Q348.94 321.56 349.32 320.76L353.87 311.16L356.84 311.16L349.80 325.78" fill="white" fill-opacity="0.9"/>
<path d="M382.83 334.52L380.04 334.52L380.04 311.16L383.88 311.16L391.02 331.16Q390.95 330.36 390.87 329.19Q390.79 328.02 390.75 326.73Q390.70 325.43 390.70 324.28L390.70 311.16L393.48 311.16L393.48 334.52L389.64 334.52L382.54 314.52Q382.60 315.29 382.67 316.46Q382.73 317.62 382.78 318.92Q382.83 320.22 382.83 321.40" fill="white" fill-opacity="0.9"/>
<path d="M405.96 334.84Q402.83 334.84 401 333.02Q399.18 331.19 399.18 327.80L399.18 317.88Q399.18 314.49 401 312.66Q402.83 310.84 405.96 310.84Q409.10 310.84 410.92 312.66Q412.75 314.49 412.75 317.85L412.75 327.80Q412.75 331.19 410.92 333.02Q409.10 334.84 405.96 334.84M405.96 332.25Q407.85 332.25 408.86 331.18Q409.87 330.10 409.87 328.12L409.87 317.56Q409.87 315.58 408.86 314.50Q407.85 313.43 405.96 313.43Q404.11 313.43 403.08 314.50Q402.06 315.58 402.06 317.56L402.06 328.12Q402.06 330.10 403.08 331.18Q404.11 332.25 405.96 332.25" fill="white" fill-opacity="0.9"/>
<path d="M424.55 334.52L418.51 334.52L418.51 311.16L424.55 311.16Q426.83 311.16 428.47 312.02Q430.12 312.89 431.03 314.46Q431.95 316.02 431.95 318.17L431.95 327.48Q431.95 329.62 431.03 331.21Q430.12 332.79 428.47 333.66Q426.83 334.52 424.55 334.52M421.39 313.72L421.39 331.96L424.55 331.96Q426.67 331.96 427.87 330.78Q429.07 329.59 429.07 327.48L429.07 318.17Q429.07 316.09 427.87 314.90Q426.67 313.72 424.55 313.72" fill="white" fill-opacity="0.9"/>
<path d="M451.40 334.52L437.96 334.52L437.96 311.16L451.40 311.16L451.40 313.78L440.81 313.78L440.81 321.02L450.28 321.02L450.28 323.58L440.81 323.58L440.81 331.90L451.40 331.90" fill="white" fill-opacity="0.9"/>
<path d="M463.69 334.84Q460.30 334.84 458.28 333.05Q456.27 331.26 456.27 328.12L459.15 328.12Q459.15 330.07 460.39 331.18Q461.64 332.28 463.69 332.28Q465.67 332.28 466.86 331.13Q468.04 329.98 468.04 328.12Q468.04 326.71 467.29 325.67Q466.54 324.63 465.13 324.25L461.58 323.26Q459.37 322.62 458.11 320.97Q456.84 319.32 456.84 317.08Q456.84 315.22 457.67 313.82Q458.51 312.41 460.01 311.62Q461.51 310.84 463.47 310.84Q465.45 310.84 466.97 311.62Q468.49 312.41 469.35 313.80Q470.22 315.19 470.22 317.02L467.34 317.02Q467.34 315.42 466.25 314.41Q465.16 313.40 463.47 313.40Q461.77 313.40 460.71 314.41Q459.66 315.42 459.66 317.02Q459.66 318.30 460.35 319.21Q461.03 320.12 462.28 320.47L465.93 321.50Q468.27 322.14 469.56 323.91Q470.86 325.69 470.86 328.12Q470.86 331.19 468.91 333.02Q466.95 334.84 463.69 334.84" fill="white" fill-opacity="0.9"/>
</g>
<path d="M82.36 190.92L72.04 196.08L72.04 193.99L79.48 190.34Q79.94 190.13 80.33 189.97Q80.73 189.82 80.92 189.77Q80.70 189.72 80.30 189.55Q79.89 189.38 79.48 189.19L72.04 185.52L72.04 183.36L82.36 188.52" fill="white" fill-opacity="0.7"/>
<path d="M107.08 197.64L104.92 197.64L104.92 182.09L100.12 182.09L100.12 180.12L111.88 180.12L111.88 182.09L107.08 182.09" fill="white" fill-opacity="0.7"/>
<path d="M117.57 197.64L115.41 197.64L115.41 180.12L117.57 180.12L117.57 186.96L117.59 186.96Q117.76 185.64 118.67 184.92Q119.58 184.20 121.10 184.20Q123.09 184.20 124.26 185.42Q125.44 186.65 125.44 188.76L125.44 197.64L123.28 197.64L123.28 189.12Q123.28 187.63 122.52 186.83Q121.77 186.02 120.47 186.02Q119.13 186.02 118.35 186.86Q117.57 187.70 117.57 189.24" fill="white" fill-opacity="0.7"/>
<path d="M140.92 197.64L129.64 197.64L129.64 195.67L134.32 195.67L134.32 186.41L130.12 186.41L130.12 184.44L136.48 184.44L136.48 195.67L140.92 195.67L140.92 197.64M135.16 182.06Q134.37 182.06 133.91 181.66Q133.46 181.25 133.46 180.55Q133.46 179.83 133.91 179.41Q134.37 178.99 135.16 178.99Q135.95 178.99 136.41 179.41Q136.86 179.83 136.86 180.55Q136.86 181.25 136.41 181.66Q135.95 182.06 135.16 182.06" fill="white" fill-opacity="0.7"/>
<path d="M149.73 197.83L148.67 197.83Q146.46 197.83 145.25 196.84Q144.04 195.84 144.04 194.02L146.20 194.02Q146.20 194.93 146.85 195.44Q147.50 195.96 148.67 195.96L149.73 195.96Q150.93 195.96 151.59 195.43Q152.25 194.90 152.25 193.94Q152.25 192.24 150.69 192.02L147.04 191.50Q145.70 191.30 144.95 190.38Q144.21 189.46 144.21 187.94Q144.21 186.22 145.40 185.23Q146.58 184.25 148.67 184.25L149.73 184.25Q151.65 184.25 152.86 185.20Q154.07 186.14 154.17 187.68L151.98 187.68Q151.94 186.98 151.32 186.53Q150.71 186.07 149.73 186.07L148.67 186.07Q147.57 186.07 146.94 186.58Q146.32 187.08 146.32 187.94Q146.32 189.34 147.59 189.53LNaN 190.01Q154.36 190.49 154.36 193.94Q154.36 195.79 153.15 196.81Q151.94 197.83 149.73 197.83" fill="white" fill-opacity="0.7"/>
<path d="M178.12 197.64L175.96 197.64L175.96 188.21L172.12 188.21L172.12 186.24L175.96 186.24L175.96 183.48Q175.96 181.92 176.94 181.02Q177.93 180.12 179.66 180.12L183.52 180.12L183.52 182.09L179.66 182.09Q178.12 182.09 178.12 183.48L178.12 186.24L183.52 186.24L183.52 188.21L178.12 188.21" fill="white" fill-opacity="0.7"/>
<path d="M192.40 197.88Q190.07 197.88 188.64 196.48Q187.22 195.07 187.22 192.60L187.22 189.48Q187.22 187.01 188.64 185.60Q190.07 184.20 192.40 184.20Q193.96 184.20 195.12 184.82Q196.29 185.45 196.94 186.58Q197.58 187.70 197.58 189.24L197.58 191.59L189.33 191.59L189.33 192.84Q189.33 194.30 190.17 195.16Q191.01 196.01 192.40 196.01Q193.60 196.01 194.38 195.54Q195.16 195.07 195.33 194.28L197.49 194.28Q197.27 195.94 195.88 196.91Q194.49 197.88 192.40 197.88M189.33 189.24L189.33 189.91L195.47 189.91L195.47 189.24Q195.47 187.68 194.67 186.83Q193.86 185.98 192.40 185.98Q190.94 185.98 190.13 186.83Q189.33 187.68 189.33 189.24" fill="white" fill-opacity="0.7"/>
<path d="M205.65 197.88Q203.61 197.88 202.41 196.74Q201.21 195.60 201.21 193.75Q201.21 192.53 201.76 191.62Q202.31 190.70 203.30 190.19Q204.28 189.67 205.55 189.67L209.63 189.67L209.63 188.64Q209.63 186.07 206.82 186.07Q205.58 186.07 204.81 186.53Q204.04 186.98 203.99 187.80L201.83 187.80Q201.95 186.24 203.28 185.22Q204.62 184.20 206.82 184.20Q209.22 184.20 210.51 185.35Q211.79 186.50 211.79 188.57L211.79 197.64L209.66 197.64L209.66 195.24L209.61 195.24Q209.42 196.46 208.38 197.17Q207.35 197.88 205.65 197.88M206.18 196.06Q207.76 196.06 208.70 195.29Q209.63 194.52 209.63 193.20L209.63 191.35L205.79 191.35Q204.74 191.35 204.08 191.99Q203.42 192.62 203.42 193.68Q203.42 194.78 204.15 195.42Q204.88 196.06 206.18 196.06" fill="white" fill-opacity="0.7"/>
<path d="M226.36 197.64L222.52 197.64Q220.89 197.64 219.90 196.69Q218.92 195.74 218.92 194.16L218.92 186.41L215.13 186.41L215.13 184.44L218.92 184.44L218.92 180.72L221.08 180.72L221.08 184.44L226.48 184.44L226.48 186.41L221.08 186.41L221.08 194.16Q221.08 194.83 221.48 195.25Q221.87 195.67 222.52 195.67L226.36 195.67" fill="white" fill-opacity="0.7"/>
<path d="M235.58 197.88Q233.30 197.88 231.93 196.52Q230.56 195.17 230.56 192.84L230.56 184.44L232.72 184.44L232.72 192.84Q232.72 194.28 233.49 195.13Q234.26 195.98 235.58 195.98Q236.92 195.98 237.70 195.13Q238.48 194.28 238.48 192.84L238.48 184.44L240.64 184.44L240.64 192.84Q240.64 195.17 239.25 196.52Q237.86 197.88 235.58 197.88" fill="white" fill-opacity="0.7"/>
<path d="M247.65 197.64L245.49 197.64L245.49 184.44L247.65 184.44L247.65 186.96L247.70 186.96Q247.86 185.69 248.78 184.94Q249.69 184.20 251.22 184.20Q253.29 184.20 254.40 185.44Q255.52 186.67 255.52 188.95L255.52 190.08L253.36 190.08L253.36 188.95Q253.36 186.07 250.55 186.07Q249.14 186.07 248.39 186.89Q247.65 187.70 247.65 189.24" fill="white" fill-opacity="0.7"/>
<path d="M264.40 197.88Q262.07 197.88 260.64 196.48Q259.22 195.07 259.22 192.60L259.22 189.48Q259.22 187.01 260.64 185.60Q262.07 184.20 264.40 184.20Q265.96 184.20 267.12 184.82Q268.29 185.45 268.94 186.58Q269.58 187.70 269.58 189.24L269.58 191.59L261.33 191.59L261.33 192.84Q261.33 194.30 262.17 195.16Q263.01 196.01 264.40 196.01Q265.60 196.01 266.38 195.54Q267.16 195.07 267.33 194.28L269.49 194.28Q269.27 195.94 267.88 196.91Q266.49 197.88 264.40 197.88M261.33 189.24L261.33 189.91L267.47 189.91L267.47 189.24Q267.47 187.68 266.67 186.83Q265.86 185.98 264.40 185.98Q262.94 185.98 262.13 186.83Q261.33 187.68 261.33 189.24" fill="white" fill-opacity="0.7"/>
<path d="M299.32 197.64L288.04 197.64L288.04 195.67L292.72 195.67L292.72 186.41L288.52 186.41L288.52 184.44L294.88 184.44L294.88 195.67L299.32 195.67L299.32 197.64M293.56 182.06Q292.77 182.06 292.31 181.66Q291.86 181.25 291.86 180.55Q291.86 179.83 292.31 179.41Q292.77 178.99 293.56 178.99Q294.35 178.99 294.81 179.41Q295.26 179.83 295.26 180.55Q295.26 181.25 294.81 181.66Q294.35 182.06 293.56 182.06" fill="white" fill-opacity="0.7"/>
<path d="M308.13 197.83L307.07 197.83Q304.86 197.83 303.65 196.84Q302.44 195.84 302.44 194.02L304.60 194.02Q304.60 194.93 305.25 195.44Q305.90 195.96 307.07 195.96L308.13 195.96Q309.33 195.96 309.99 195.43Q310.65 194.90 310.65 193.94Q310.65 192.24 309.09 192.02L305.44 191.50Q304.10 191.30 303.35 190.38Q302.61 189.46 302.61 187.94Q302.61 186.22 303.80 185.23Q304.98 184.25 307.07 184.25L308.13 184.25Q310.05 184.25 311.26 185.20Q312.47 186.14 312.57 187.68L310.38 187.68Q310.34 186.98 309.72 186.53Q309.11 186.07 308.13 186.07L307.07 186.07Q305.97 186.07 305.34 186.58Q304.72 187.08 304.72 187.94Q304.72 189.34 305.99 189.53L309.40 190.01Q312.76 190.49 312.76 193.94Q312.76 195.79 311.55 196.81Q310.34 197.83 308.13 197.83" fill="white" fill-opacity="0.7"/>
<path d="M342.52 197.64L331.24 197.64L331.24 195.67L335.92 195.67L335.92 186.41L331.72 186.41L331.72 184.44L338.08 184.44L338.08 195.67L342.52 195.67L342.52 197.64M336.76 182.06Q335.97 182.06 335.51 181.66Q335.06 181.25 335.06 180.55Q335.06 179.83 335.51 179.41Q335.97 178.99 336.76 178.99Q337.55 178.99 338.01 179.41Q338.46 179.83 338.46 180.55Q338.46 181.25 338.01 181.66Q337.55 182.06 336.76 182.06" fill="white" fill-opacity="0.7"/>
<path d="M347.97 197.64L345.81 197.64L345.81 184.44L347.97 184.44L347.97 186.96L347.99 186.96Q348.16 185.64 349.07 184.92Q349.98 184.20 351.50 184.20Q353.49 184.20 354.66 185.42Q355.84 186.65 355.84 188.76L355.84 197.64L353.68 197.64L353.68 189.14Q353.68 187.63 352.92 186.83Q352.17 186.02 350.87 186.02Q349.53 186.02 348.75 186.86Q347.97 187.70 347.97 189.24" fill="white" fill-opacity="0.7"/>
<path d="M379.79 197.88Q377.39 197.88 375.95 196.54Q374.51 195.19 374.51 192.84L374.51 189.24Q374.51 186.89 375.95 185.54Q377.39 184.20 379.79 184.20Q382.07 184.20 383.48 185.42Q384.88 186.65 384.95 188.76L382.79 188.76Q382.72 187.49 381.93 186.80Q381.14 186.12 379.79 186.12Q378.38 186.12 377.52 186.92Q376.67 187.73 376.67 189.22L376.67 192.84Q376.67 194.33 377.52 195.14Q378.38 195.96 379.79 195.96Q381.14 195.96 381.93 195.26Q382.72 194.57 382.79 193.32L384.95 193.32Q384.88 195.43 383.48 196.66Q382.07 197.88 379.79 197.88" fill="white" fill-opacity="0.7"/>
<path d="M400 197.64L395.92 197.64Q394.17 197.64 393.12 196.62Q392.08 195.60 392.08 193.92L392.08 182.09L387.52 182.09L387.52 180.12L394.24 180.12L394.24 193.92Q394.24 194.74 394.70 195.20Q395.15 195.67 395.92 195.67L400 195.67" fill="white" fill-opacity="0.7"/>
<path d="M408.40 197.83Q406.02 197.83 404.62 196.44Q403.22 195.05 403.22 192.55L403.22 189.53Q403.22 187.01 404.61 185.63Q406 184.25 408.40 184.25Q410.80 184.25 412.19 185.63Q413.58 187.01 413.58 189.53L413.58 192.55Q413.58 195.05 412.18 196.44Q410.78 197.83 408.40 197.83M408.40 195.91Q409.82 195.91 410.62 195.12Q411.42 194.33 411.42 192.79L411.42 189.29Q411.42 187.75 410.62 186.96Q409.82 186.17 408.40 186.17Q407.01 186.17 406.19 186.96Q405.38 187.75 405.38 189.29L405.38 192.79Q405.38 194.33 406.19 195.12Q407.01 195.91 408.40 195.91" fill="white" fill-opacity="0.7"/>
<path d="M423.33 197.83L422.27 197.83Q420.06 197.83 418.85 196.84Q417.64 195.84 417.64 194.02L419.80 194.02Q419.80 194.93 420.45 195.44Q421.10 195.96 422.27 195.96L423.33 195.96Q424.53 195.96 425.19 195.43Q425.85 194.90 425.85 193.94Q425.85 192.24 424.29 192.02L420.64 191.50Q419.30 191.30 418.55 190.38Q417.81 189.46 417.81 187.94Q417.81 186.22 419 185.23Q420.18 184.25 422.27 184.25L423.33 184.25Q425.25 184.25 426.46 185.20Q427.67 186.14 427.77 187.68L425.58 187.68Q425.54 186.98 424.92 186.53Q424.31 186.07 423.33 186.07L422.27 186.07Q421.17 186.07 420.54 186.58Q419.92 187.08 419.92 187.94Q419.92 189.34 421.19 189.53L424.60 190.01Q427.96 190.49 427.96 193.94Q427.96 195.79 426.75 196.81Q425.54 197.83 423.33 197.83" fill="white" fill-opacity="0.7"/>
<path d="M437.20 197.88Q434.87 197.88 433.44 196.48Q432.02 195.07 432.02 192.60L432.02 189.48Q432.02 187.01 433.44 185.60Q434.87 184.20 437.20 184.20Q438.76 184.20 439.92 184.82Q441.09 185.45 441.74 186.58Q442.38 187.70 442.38 189.24L442.38 191.59L434.13 191.59L434.13 192.84Q434.13 194.30 434.97 195.16Q435.81 196.01 437.20 196.01Q438.40 196.01 439.18 195.54Q439.96 195.07 440.13 194.28L442.29 194.28Q442.07 195.94 440.68 196.91Q439.29 197.88 437.20 197.88M434.13 189.24L434.13 189.91L440.27 189.91L440.27 189.24Q440.27 187.68 439.47 186.83Q438.66 185.98 437.20 185.98Q435.74 185.98 434.93 186.83Q434.13 187.68 434.13 189.24" fill="white" fill-opacity="0.7"/>
<path d="M450.83 197.88Q448.86 197.88 447.68 196.56Q446.49 195.24 446.49 192.98L446.49 189.12Q446.49 186.84 447.66 185.52Q448.84 184.20 450.83 184.20Q452.32 184.20 453.29 184.94Q454.26 185.69 454.46 186.96L454.48 186.96L454.43 183.96L454.43 180.12L456.59 180.12L456.59 197.64L454.43 197.64L454.43 195.12L454.41 195.12Q454.24 196.42 453.28 197.15Q452.32 197.88 450.83 197.88M451.55 196.01Q452.90 196.01 453.66 195.17Q454.43 194.33 454.43 192.84L454.43 189.24Q454.43 187.75 453.66 186.91Q452.90 186.07 451.55 186.07Q450.18 186.07 449.42 186.78Q448.65 187.49 448.65 189.12L448.65 192.96Q448.65 194.57 449.42 195.29Q450.18 196.01 451.55 196.01" fill="white" fill-opacity="0.7"/>
<path d="M481.17 197.88Q479.68 197.88 478.72 197.15Q477.76 196.42 477.59 195.12L477.57 195.12L477.57 197.64L475.41 197.64L475.41 180.12L477.57 180.12L477.57 183.96L477.52 186.96L477.54 186.96Q477.74 185.69 478.71 184.94Q479.68 184.20 481.17 184.20Q483.16 184.20 484.34 185.52Q485.51 186.84 485.51 189.12L485.51 192.98Q485.51 195.24 484.34 196.56Q483.16 197.88 481.17 197.88M480.45 196.01Q481.82 196.01 482.58 195.29Q483.35 194.57 483.35 192.96L483.35 189.12Q483.35 187.49 482.58 186.78Q481.82 186.07 480.45 186.07Q479.13 186.07 478.35 186.91Q477.57 187.75 477.57 189.24L477.57 192.84Q477.57 194.33 478.35 195.17Q479.13 196.01 480.45 196.01" fill="white" fill-opacity="0.7"/>
<path d="M494.80 197.88Q492.47 197.88 491.04 196.48Q489.62 195.07 489.62 192.60L489.62 189.48Q489.62 187.01 491.04 185.60Q492.47 184.20 494.80 184.20Q496.36 184.20 497.52 184.82Q498.69 185.45 499.34 186.58Q499.98 187.70 499.98 189.24L499.98 191.59L491.73 191.59L491.73 192.84Q491.73 194.30 492.57 195.16Q493.41 196.01 494.80 196.01Q496 196.01 496.78 195.54Q497.56 195.07 497.73 194.28L499.89 194.28Q499.67 195.94 498.28 196.91Q496.89 197.88 494.80 197.88M491.73 189.24L491.73 189.91L497.87 189.91L497.87 189.24Q497.87 187.68 497.07 186.83Q496.26 185.98 494.80 185.98Q493.34 185.98 492.53 186.83Q491.73 187.68 491.73 189.24" fill="white" fill-opacity="0.7"/>
<path d="M514.36 197.64L510.52 197.64Q508.89 197.64 507.90 196.69Q506.92 195.74 506.92 194.16L506.92 186.41L503.13 186.41L503.13 184.44L506.92 184.44L506.92 180.72L509.08 180.72L509.08 184.44L514.48 184.44L514.48 186.41L509.08 186.41L509.08 194.16Q509.08 194.83 509.48 195.25Q509.87 195.67 510.52 195.67L514.36 195.67" fill="white" fill-opacity="0.7"/>
<path d="M522.45 197.88Q520.41 197.88 519.21 196.74Q518.01 195.60 518.01 193.75Q518.01 192.53 518.56 191.62Q519.11 190.70 520.10 190.19Q521.08 189.67 522.35 189.67L526.43 189.67L526.43 188.64Q526.43 186.07 523.62 186.07Q522.38 186.07 521.61 186.53Q520.84 186.98 520.79 187.80L518.63 187.80Q518.75 186.24 520.08 185.22Q521.42 184.20 523.62 184.20Q526.02 184.20 527.31 185.35Q528.59 186.50 528.59 188.57L528.59 197.64L526.46 197.64L526.46 195.24L526.41 195.24Q526.22 196.46 525.18 197.17Q524.15 197.88 522.45 197.88M522.98 196.06Q524.56 196.06 525.50 195.29Q526.43 194.52 526.43 193.20L526.43 191.35L522.59 191.35Q521.54 191.35 520.88 191.99Q520.22 192.62 520.22 193.68Q520.22 194.78 520.95 195.42Q521.68 196.06 522.98 196.06" fill="white" fill-opacity="0.7"/>
<path d="M538.07 201.48L535.84 201.48L537.16 194.14L539.75 194.14" fill="white" fill-opacity="0.7"/>
<path d="M565.65 197.88Q563.61 197.88 562.41 196.74Q561.21 195.60 561.21 193.75Q561.21 192.53 561.76 191.62Q562.31 190.70 563.30 190.19Q564.28 189.67 565.55 189.67L569.63 189.67L569.63 188.64Q569.63 186.07 566.82 186.07Q565.58 186.07 564.81 186.53Q564.04 186.98 563.99 187.80L561.83 187.80Q561.95 186.24 563.28 185.22Q564.62 184.20 566.82 184.20Q569.22 184.20 570.51 185.35Q571.79 186.50 571.79 188.57L571.79 197.64L569.66 197.64L569.66 195.24L569.61 195.24Q569.42 196.46 568.38 197.17Q567.35 197.88 565.65 197.88M566.18 196.06Q567.76 196.06 568.70 195.29Q569.63 194.52 569.63 193.20L569.63 191.35L565.79 191.35Q564.74 191.35 564.08 191.99Q563.42 192.62 563.42 193.68Q563.42 194.78 564.15 195.42Q564.88 196.06 566.18 196.06" fill="white" fill-opacity="0.7"/>
<path d="M582.62 197.64L579.78 197.64L575.30 184.44L577.62 184.44L580.50 193.32Q580.77 194.11 580.96 194.84Q581.15 195.58 581.25 195.98Q581.37 195.58 581.54 194.84Q581.70 194.11 581.94 193.32L584.82 184.44L587.10 184.44" fill="white" fill-opacity="0.7"/>
<path d="M594.45 197.88Q592.41 197.88 591.21 196.74Q590.01 195.60 590.01 193.75Q590.01 192.53 590.56 191.62Q591.11 190.70 592.10 190.19Q593.08 189.67 594.35 189.67L598.43 189.67L598.43 188.64Q598.43 186.07 595.62 186.07Q594.38 186.07 593.61 186.53Q592.84 186.98 592.79 187.80L590.63 187.80Q590.75 186.24 592.08 185.22Q593.42 184.20 595.62 184.20Q598.02 184.20 599.31 185.35Q600.59 186.50 600.59 188.57L600.59 197.64L598.46 197.64L598.46 195.24L598.41 195.24Q598.22 196.46 597.18 197.17Q596.15 197.88 594.45 197.88M594.98 196.06Q596.56 196.06 597.50 195.29Q598.43 194.52 598.43 193.20L598.43 191.35L594.59 191.35Q593.54 191.35 592.88 191.99Q592.22 192.62 592.22 193.68Q592.22 194.78 592.95 195.42Q593.68 196.06 594.98 196.06" fill="white" fill-opacity="0.7"/>
<path d="M616.12 197.64L604.84 197.64L604.84 195.67L609.52 195.67L609.52 186.41L605.32 186.41L605.32 184.44L611.68 184.44L611.68 195.67L616.12 195.67L616.12 197.64M610.36 182.06Q609.57 182.06 609.11 181.66Q608.66 181.25 608.66 180.55Q608.66 179.83 609.11 179.41Q609.57 178.99 610.36 178.99Q611.15 178.99 611.61 179.41Q612.06 179.83 612.06 180.55Q612.06 181.25 611.61 181.66Q611.15 182.06 610.36 182.06" fill="white" fill-opacity="0.7"/>
<path d="M630.40 197.64L626.32 197.64Q624.57 197.64 623.52 196.62Q622.48 195.60 622.48 193.92L622.48 182.09L617.92 182.09L617.92 180.12L624.64 180.12L624.64 193.92Q624.64 194.74 625.10 195.20Q625.55 195.67 626.32 195.67L630.40 195.67" fill="white" fill-opacity="0.7"/>
<path d="M637.65 197.88Q635.61 197.88 634.41 196.74Q633.21 195.60 633.21 193.75Q633.21 192.53 633.76 191.62Q634.31 190.70 635.30 190.19Q636.28 189.67 637.55 189.67L641.63 189.67L641.63 188.64Q641.63 186.07 638.82 186.07Q637.58 186.07 636.81 186.53Q636.04 186.98 635.99 187.80L633.83 187.80Q633.95 186.24 635.28 185.22Q636.62 184.20 638.82 184.20Q641.22 184.20 642.51 185.35Q643.79 186.50 643.79 188.57L643.79 197.64L641.66 197.64L641.66 195.24L641.61 195.24Q641.42 196.46 640.38 197.17Q639.35 197.88 637.65 197.88M638.18 196.06Q639.76 196.06 640.70 195.29Q641.63 194.52 641.63 193.20L641.63 191.35L637.79 191.35Q636.74 191.35 636.08 191.99Q635.42 192.62 635.42 193.68Q635.42 194.78 636.15 195.42Q636.88 196.06 638.18 196.06" fill="white" fill-opacity="0.7"/>
<path d="M653.97 197.88Q652.48 197.88 651.52 197.15Q650.56 196.42 650.39 195.12L650.37 195.12L650.37 197.64L648.21 197.64L648.21 180.12L650.37 180.12L650.37 183.96L650.32 186.96L650.34 186.96Q650.54 185.69 651.51 184.94Q652.48 184.20 653.97 184.20Q655.96 184.20 657.14 185.52Q658.31 186.84 658.31 189.12L658.31 192.98Q658.31 195.24 657.14 196.56Q655.96 197.88 653.97 197.88M653.25 196.01Q654.62 196.01 655.38 195.29Q656.15 194.57 656.15 192.96L656.15 189.12Q656.15 187.49 655.38 186.78Q654.62 186.07 653.25 186.07Q651.93 186.07 651.15 186.91Q650.37 187.75 650.37 189.24L650.37 192.84Q650.37 194.33 651.15 195.17Q651.93 196.01 653.25 196.01" fill="white" fill-opacity="0.7"/>
<path d="M673.60 197.64L669.52 197.64Q667.77 197.64 666.72 196.62Q665.68 195.60 665.68 193.92L665.68 182.09L661.12 182.09L661.12 180.12L667.84 180.12L667.84 193.92Q667.84 194.74 668.30 195.20Q668.75 195.67 669.52 195.67L673.60 195.67" fill="white" fill-opacity="0.7"/>
<path d="M682 197.88Q679.67 197.88 678.24 196.48Q676.82 195.07 676.82 192.60L676.82 189.48Q676.82 187.01 678.24 185.60Q679.67 184.20 682 184.20Q683.56 184.20 684.72 184.82Q685.89 185.45 686.54 186.58Q687.18 187.70 687.18 189.24L687.18 191.59L678.93 191.59L678.93 192.84Q678.93 194.30 679.77 195.16Q680.61 196.01 682 196.01Q683.20 196.01 683.98 195.54Q684.76 195.07 684.93 194.28L687.09 194.28Q686.87 195.94 685.48 196.91Q684.09 197.88 682 197.88M678.93 189.24L678.93 189.91L685.07 189.91L685.07 189.24Q685.07 187.68 684.27 186.83Q683.46 185.98 682 185.98Q680.54 185.98 679.73 186.83Q678.93 187.68 678.93 189.24" fill="white" fill-opacity="0.7"/>
<path d="M710.80 197.83Q708.42 197.83 707.02 196.44Q705.62 195.05 705.62 192.55L705.62 189.53Q705.62 187.01 707.01 185.63Q708.40 184.25 710.80 184.25Q713.20 184.25 714.59 185.63Q715.98 187.01 715.98 189.53L715.98 192.55Q715.98 195.05 714.58 196.44Q713.18 197.83 710.80 197.83M710.80 195.91Q712.22 195.91 713.02 195.12Q713.82 194.33 713.82 192.79L713.82 189.29Q713.82 187.75 713.02 186.96Q712.22 186.17 710.80 186.17Q709.41 186.17 708.59 186.96Q707.78 187.75 707.78 189.29L707.78 192.79Q707.78 194.33 708.59 195.12Q709.41 195.91 710.80 195.91" fill="white" fill-opacity="0.7"/>
<path d="M722.37 197.64L720.21 197.64L720.21 184.44L722.37 184.44L722.37 186.96L722.39 186.96Q722.56 185.64 723.47 184.92Q724.38 184.20 725.90 184.20Q727.89 184.20 729.06 185.42Q730.24 186.65 730.24 188.76L730.24 197.64L728.08 197.64L728.08 189.14Q728.08 187.63 727.32 186.83Q726.57 186.02 725.27 186.02Q723.93 186.02 723.15 186.86Q722.37 187.70 722.37 189.24" fill="white" fill-opacity="0.7"/>
<path d="M745.60 197.64L741.52 197.64Q739.77 197.64 738.72 196.62Q737.68 195.60 737.68 193.92L737.68 182.09L733.12 182.09L733.12 180.12L739.84 180.12L739.84 193.92Q739.84 194.74 740.30 195.20Q740.75 195.67 741.52 195.67L745.60 195.67" fill="white" fill-opacity="0.7"/>
<path d="M753.33 201.96L751.07 201.96L753.02 196.82L748.10 184.44L750.42 184.44L753.54 192.60Q753.74 193.08 753.90 193.61Q754.07 194.14 754.14 194.52Q754.22 194.14 754.38 193.61Q754.55 193.08 754.72 192.60L757.62 184.44L759.90 184.44" fill="white" fill-opacity="0.7"/>
<path d="M782.92 197.64L780.76 197.64L780.76 188.21L776.92 188.21L776.92 186.24L780.76 186.24L780.76 183.48Q780.76 181.92 781.74 181.02Q782.73 180.12 784.46 180.12L788.32 180.12L788.32 182.09L784.46 182.09Q782.92 182.09 782.92 183.48L782.92 186.24L788.32 186.24L788.32 188.21L782.92 188.21" fill="white" fill-opacity="0.7"/>
<path d="M797.20 197.83Q794.82 197.83 793.42 196.44Q792.02 195.05 792.02 192.55L792.02 189.53Q792.02 187.01 793.41 185.63Q794.80 184.25 797.20 184.25Q799.60 184.25 800.99 185.63Q802.38 187.01 802.38 189.53L802.38 192.55Q802.38 195.05 800.98 196.44Q799.58 197.83 797.20 197.83M797.20 195.91Q798.62 195.91 799.42 195.12Q800.22 194.33 800.22 192.79L800.22 189.29Q800.22 187.75 799.42 186.96Q798.62 186.17 797.20 186.17Q795.81 186.17 794.99 186.96Q794.18 187.75 794.18 189.29L794.18 192.79Q794.18 194.33 794.99 195.12Q795.81 195.91 797.20 195.91" fill="white" fill-opacity="0.7"/>
<path d="M809.25 197.64L807.09 197.64L807.09 184.44L809.25 184.44L809.25 186.96L809.30 186.96Q809.46 185.69 810.38 184.94Q811.29 184.20 812.82 184.20Q814.89 184.20 816 185.44Q817.12 186.67 817.12 188.95L817.12 190.08L814.96 190.08L814.96 188.95Q814.96 186.07 812.15 186.07Q810.74 186.07 809.99 186.89Q809.25 187.70 809.25 189.24" fill="white" fill-opacity="0.7"/>
<path d="M840.93 197.83L839.87 197.83Q837.66 197.83 836.45 196.84Q835.24 195.84 835.24 194.02L837.40 194.02Q837.40 194.93 838.05 195.44Q838.70 195.96 839.87 195.96L840.93 195.96Q842.13 195.96 842.79 195.43Q843.45 194.90 843.45 193.94Q843.45 192.24 841.89 192.02L838.24 191.50Q836.90 191.30 836.15 190.38Q835.41 189.46 835.41 187.94Q835.41 186.22 836.60 185.23Q837.78 184.25 839.87 184.25L840.93 184.25Q842.85 184.25 844.06 185.20Q845.27 186.14 845.37 187.68L843.18 187.68Q843.14 186.98 842.52 186.53Q841.91 186.07 840.93 186.07L839.87 186.07Q838.77 186.07 838.14 186.58Q837.52 187.08 837.52 187.94Q837.52 189.34 838.79 189.53L842.20 190.01Q845.56 190.49 845.56 193.94Q845.56 195.79 844.35 196.81Q843.14 197.83 840.93 197.83" fill="white" fill-opacity="0.7"/>
<path d="M854.80 197.88Q852.47 197.88 851.04 196.48Q849.62 195.07 849.62 192.60L849.62 189.48Q849.62 187.01 851.04 185.60Q852.47 184.20 854.80 184.20Q856.36 184.20 857.52 184.82Q858.69 185.45 859.34 186.58Q859.98 187.70 859.98 189.24L859.98 191.59L851.73 191.59L851.73 192.84Q851.73 194.30 852.57 195.16Q853.41 196.01 854.80 196.01Q856 196.01 856.78 195.54Q857.56 195.07 857.73 194.28L859.89 194.28Q859.67 195.94 858.28 196.91Q856.89 197.88 854.80 197.88M851.73 189.24L851.73 189.91L857.87 189.91L857.87 189.24Q857.87 187.68 857.07 186.83Q856.26 185.98 854.80 185.98Q853.34 185.98 852.53 186.83Q851.73 187.68 851.73 189.24" fill="white" fill-opacity="0.7"/>
<path d="M875.20 197.64L871.12 197.64Q869.37 197.64 868.32 196.62Q867.28 195.60 867.28 193.92L867.28 182.09L862.72 182.09L862.72 180.12L869.44 180.12L869.44 193.92Q869.44 194.74 869.90 195.20Q870.35 195.67 871.12 195.67L875.20 195.67" fill="white" fill-opacity="0.7"/>
<path d="M883.60 197.88Q881.27 197.88 879.84 196.48Q878.42 195.07 878.42 192.60L878.42 189.48Q878.42 187.01 879.84 185.60Q881.27 184.20 883.60 184.20Q885.16 184.20 886.32 184.82Q887.49 185.45 888.14 186.58Q888.78 187.70 888.78 189.24L888.78 191.59L880.53 191.59L880.53 192.84Q880.53 194.30 881.37 195.16Q882.21 196.01 883.60 196.01Q884.80 196.01 885.58 195.54Q886.36 195.07 886.53 194.28L888.69 194.28Q888.47 195.94 887.08 196.91Q885.69 197.88 883.60 197.88M880.53 189.24L880.53 189.91L886.67 189.91L886.67 189.24Q886.67 187.68 885.87 186.83Q885.06 185.98 883.60 185.98Q882.14 185.98 881.33 186.83Q880.53 187.68 880.53 189.24" fill="white" fill-opacity="0.7"/>
<path d="M898.19 197.88Q895.79 197.88 894.35 196.54Q892.91 195.19 892.91 192.84L892.91 189.24Q892.91 186.89 894.35 185.54Q895.79 184.20 898.19 184.20Q900.47 184.20 901.88 185.42Q903.28 186.65 903.35 188.76L901.19 188.76Q901.12 187.49 900.33 186.80Q899.54 186.12 898.19 186.12Q896.78 186.12 895.92 186.92Q895.07 187.73 895.07 189.22L895.07 192.84Q895.07 194.33 895.92 195.14Q896.78 195.96 898.19 195.96Q899.54 195.96 900.33 195.26Q901.12 194.57 901.19 193.32L903.35 193.32Q903.28 195.43 901.88 196.66Q900.47 197.88 898.19 197.88" fill="white" fill-opacity="0.7"/>
<path d="M917.56 197.64L913.72 197.64Q912.09 197.64 911.10 196.69Q910.12 195.74 910.12 194.16L910.12 186.41L906.33 186.41L906.33 184.44L910.12 184.44L910.12 180.72L912.28 180.72L912.28 184.44L917.68 184.44L917.68 186.41L912.28 186.41L912.28 194.16Q912.28 194.83 912.68 195.25Q913.07 195.67 913.72 195.67L917.56 195.67" fill="white" fill-opacity="0.7"/>
<path d="M926.80 197.88Q924.47 197.88 923.04 196.48Q921.62 195.07 921.62 192.60L921.62 189.48Q921.62 187.01 923.04 185.60Q924.47 184.20 926.80 184.20Q928.36 184.20 929.52 184.82Q930.69 185.45 931.34 186.58Q931.98 187.70 931.98 189.24L931.98 191.59L923.73 191.59L923.73 192.84Q923.73 194.30 924.57 195.16Q925.41 196.01 926.80 196.01Q928 196.01 928.78 195.54Q929.56 195.07 929.73 194.28L931.89 194.28Q931.67 195.94 930.28 196.91Q928.89 197.88 926.80 197.88M923.73 189.24L923.73 189.91L929.87 189.91L929.87 189.24Q929.87 187.68 929.07 186.83Q928.26 185.98 926.80 185.98Q925.34 185.98 924.53 186.83Q923.73 187.68 923.73 189.24" fill="white" fill-opacity="0.7"/>
<path d="M940.43 197.88Q938.46 197.88 937.28 196.56Q936.09 195.24 936.09 192.98L936.09 189.12Q936.09 186.84 937.26 185.52Q938.44 184.20 940.43 184.20Q941.92 184.20 942.89 184.94Q943.86 185.69 944.06 186.96L944.08 186.96L944.03 183.96L944.03 180.12L946.19 180.12L946.19 197.64L944.03 197.64L944.03 195.12L944.01 195.12Q943.84 196.42 942.88 197.15Q941.92 197.88 940.43 197.88M941.15 196.01Q942.50 196.01 943.26 195.17Q944.03 194.33 944.03 192.84L944.03 189.24Q944.03 187.75 943.26 186.91Q942.50 186.07 941.15 186.07Q939.78 186.07 939.02 186.78Q938.25 187.49 938.25 189.12L938.25 192.96Q938.25 194.57 939.02 195.29Q939.78 196.01 941.15 196.01" fill="white" fill-opacity="0.7"/>
<path d="M970.19 197.88Q967.79 197.88 966.35 196.54Q964.91 195.19 964.91 192.84L964.91 189.24Q964.91 186.89 966.35 185.54Q967.79 184.20 970.19 184.20Q972.47 184.20 973.88 185.42Q975.28 186.65 975.35 188.76L973.19 188.76Q973.12 187.49 972.33 186.80Q971.54 186.12 970.19 186.12Q968.78 186.12 967.92 186.92Q967.07 187.73 967.07 189.22L967.07 192.84Q967.07 194.33 967.92 195.14Q968.78 195.96 970.19 195.96Q971.54 195.96 972.33 195.26Q973.12 194.57 973.19 193.32L975.35 193.32Q975.28 195.43 973.88 196.66Q972.47 197.88 970.19 197.88" fill="white" fill-opacity="0.7"/>
<path d="M984.38 197.88Q982.10 197.88 980.73 196.52Q979.36 195.17 979.36 192.84L979.36 184.44L981.52 184.44L981.52 192.84Q981.52 194.28 982.29 195.13Q983.06 195.98 984.38 195.98Q985.72 195.98 986.50 195.13Q987.28 194.28 987.28 192.84L987.28 184.44L989.44 184.44L989.44 192.84Q989.44 195.17 988.05 196.52Q986.66 197.88 984.38 197.88" fill="white" fill-opacity="0.7"/>
<path d="M999.33 197.83L998.27 197.83Q996.06 197.83 994.85 196.84Q993.64 195.84 993.64 194.02L995.80 194.02Q995.80 194.93 996.45 195.44Q997.10 195.96 998.27 195.96L999.33 195.96Q1000.53 195.96 1001.19 195.43Q1001.85 194.90 1001.85 193.94Q1001.85 192.24 1000.29 192.02L996.64 191.50Q995.30 191.30 994.55 190.38Q993.81 189.46 993.81 187.94Q993.81 186.22 995 185.23Q996.18 184.25 998.27 184.25L999.33 184.25Q1001.25 184.25 1002.46 185.20Q1003.67 186.14 1003.77 187.68L1001.58 187.68Q1001.54 186.98 1000.92 186.53Q1000.31 186.07 999.33 186.07L998.27 186.07Q997.17 186.07 996.54 186.58Q995.92 187.08 995.92 187.94Q995.92 189.34 997.19 189.53L1000.60 190.01Q1003.96 190.49 1003.96 193.94Q1003.96 195.79 1002.75 196.81Q1001.54 197.83 999.33 197.83" fill="white" fill-opacity="0.7"/>
<path d="M1018.36 197.64L1014.52 197.64Q1012.89 197.64 1011.90 196.69Q1010.92 195.74 1010.92 194.16L1010.92 186.41L1007.13 186.41L1007.13 184.44L1010.92 184.44L1010.92 180.72L1013.08 180.72L1013.08 184.44L1018.48 184.44L1018.48 186.41L1013.08 186.41L1013.08 194.16Q1013.08 194.83 1013.48 195.25Q1013.87 195.67 1014.52 195.67L1018.36 195.67" fill="white" fill-opacity="0.7"/>
<path d="M1027.60 197.83Q1025.22 197.83 1023.82 196.44Q1022.42 195.05 1022.42 192.55L1022.42 189.53Q1022.42 187.01 1023.81 185.63Q1025.20 184.25 1027.60 184.25Q1030 184.25 1031.39 185.63Q1032.78 187.01 1032.78 189.53L1032.78 192.55Q1032.78 195.05 1031.38 196.44Q1029.98 197.83 1027.60 197.83M1027.60 195.91Q1029.02 195.91 1029.82 195.12Q1030.62 194.33 1030.62 192.79L1030.62 189.29Q1030.62 187.75 1029.82 186.96Q1029.02 186.17 1027.60 186.17Q1026.21 186.17 1025.39 186.96Q1024.58 187.75 1024.58 189.29L1024.58 192.79Q1024.58 194.33 1025.39 195.12Q1026.21 195.91 1027.60 195.91" fill="white" fill-opacity="0.7"/>
<path d="M1038.26 197.64L1036.24 197.64L1036.24 184.44L1038.11 184.44L1038.11 186.19L1038.16 186.19Q1038.28 185.30 1038.87 184.75Q1039.46 184.20 1040.37 184.20Q1041.23 184.20 1041.83 184.70Q1042.43 185.21 1042.70 186.07L1042.72 186.07Q1042.89 185.21 1043.48 184.70Q1044.06 184.20 1044.98 184.20Q1046.25 184.20 1047 185.15Q1047.76 186.10 1047.76 187.61L1047.76 197.64L1045.74 197.64L1045.74 187.58Q1045.74 186.79 1045.36 186.32Q1044.98 185.86 1044.30 185.86Q1043.66 185.86 1043.27 186.31Q1042.89 186.77 1042.89 187.56L1042.89 197.64L1041.11 197.64L1041.11 187.58Q1041.11 186.79 1040.73 186.32Q1040.34 185.86 1039.70 185.86Q1039.02 185.86 1038.64 186.31Q1038.26 186.77 1038.26 187.56" fill="white" fill-opacity="0.7"/>
<path d="M1056.40 197.88Q1054.07 197.88 1052.64 196.48Q1051.22 195.07 1051.22 192.60L1051.22 189.48Q1051.22 187.01 1052.64 185.60Q1054.07 184.20 1056.40 184.20Q1057.96 184.20 1059.12 184.82Q1060.29 185.45 1060.94 186.58Q1061.58 187.70 1061.58 189.24L1061.58 191.59L1053.33 191.59L1053.33 192.84Q1053.33 194.30 1054.17 195.16Q1055.01 196.01 1056.40 196.01Q1057.60 196.01 1058.38 195.54Q1059.16 195.07 1059.33 194.28L1061.49 194.28Q1061.27 195.94 1059.88 196.91Q1058.49 197.88 1056.40 197.88M1053.33 189.24L1053.33 189.91L1059.47 189.91L1059.47 189.24Q1059.47 187.68 1058.67 186.83Q1057.86 185.98 1056.40 185.98Q1054.94 185.98 1054.13 186.83Q1053.33 187.68 1053.33 189.24" fill="white" fill-opacity="0.7"/>
<path d="M1068.45 197.64L1066.29 197.64L1066.29 184.44L1068.45 184.44L1068.45 186.96L1068.50 186.96Q1068.66 185.69 1069.58 184.94Q1070.49 184.20 1072.02 184.20Q1074.09 184.20 1075.20 185.44Q1076.32 186.67 1076.32 188.95L1076.32 190.08L1074.16 190.08L1074.16 188.95Q1074.16 186.07 1071.35 186.07Q1069.94 186.07 1069.19 186.89Q1068.45 187.70 1068.45 189.24" fill="white" fill-opacity="0.7"/>
<path d="M1085.73 197.83L1084.67 197.83Q1082.46 197.83 1081.25 196.84Q1080.04 195.84 1080.04 194.02L1082.20 194.02Q1082.20 194.93 1082.85 195.44Q1083.50 195.96 1084.67 195.96L1085.73 195.96Q1086.93 195.96 1087.59 195.43Q1088.25 194.90 1088.25 193.94Q1088.25 192.24 1086.69 192.02L1083.04 191.50Q1081.70 191.30 1080.95 190.38Q1080.21 189.46 1080.21 187.94Q1080.21 186.22 1081.40 185.23Q1082.58 184.25 1084.67 184.25L1085.73 184.25Q1087.65 184.25 1088.86 185.20Q1090.07 186.14 1090.17 187.68L1087.98 187.68Q1087.94 186.98 1087.32 186.53Q1086.71 186.07 1085.73 186.07L1084.67 186.07Q1083.57 186.07 1082.94 186.58Q1082.32 187.08 1082.32 187.94Q1082.32 189.34 1083.59 189.53L1087 190.01Q1090.36 190.49 1090.36 193.94Q1090.36 195.79 1089.15 196.81Q1087.94 197.83 1085.73 197.83" fill="white" fill-opacity="0.7"/>
<path d="M1099.60 197.88Q1098.71 197.88 1098.17 197.35Q1097.63 196.82 1097.63 195.98Q1097.63 195.10 1098.17 194.54Q1098.71 193.99 1099.60 193.99Q1100.49 193.99 1101.03 194.54Q1101.57 195.10 1101.57 195.98Q1101.57 196.82 1101.03 197.35Q1100.49 197.88 1099.60 197.88" fill="white" fill-opacity="0.7"/>
<path d="M1133.08 197.64L1123.72 197.64L1123.72 195.67L1127.30 195.67L1127.30 182.09L1123.72 182.09L1123.72 180.12L1133.08 180.12L1133.08 182.09L1129.50 182.09L1129.50 195.67L1133.08 195.67" fill="white" fill-opacity="0.7"/>
<path d="M1142.92 197.64L1140.76 197.64L1140.76 188.21L1136.92 188.21L1136.92 186.24L1140.76 186.24L1140.76 183.48Q1140.76 181.92 1141.74 181.02Q1142.73 180.12 1144.46 180.12L1148.32 180.12L1148.32 182.09L1144.46 182.09Q1142.92 182.09 1142.92 183.48L1142.92 186.24L1148.32 186.24L1148.32 188.21L1142.92 188.21" fill="white" fill-opacity="0.7"/>
<path d="M76.53 233.96L74.27 233.96L76.22 228.82L71.30 216.44L73.62 216.44L76.74 224.60Q76.94 225.08 77.10 225.61Q77.27 226.14 77.34 226.52Q77.42 226.14 77.58 225.61Q77.75 225.08 77.92 224.60L80.82 216.44L83.10 216.44" fill="white" fill-opacity="0.7"/>
<path d="M91.60 229.83Q89.22 229.83 87.82 228.44Q86.42 227.05 86.42 224.55L86.42 221.53Q86.42 219.01 87.81 217.63Q89.20 216.25 91.60 216.25Q94 216.25 95.39 217.63Q96.78 219.01 96.78 221.53L96.78 224.55Q96.78 227.05 95.38 228.44Q93.98 229.83 91.60 229.83M91.60 227.91Q93.02 227.91 93.82 227.12Q94.62 226.33 94.62 224.79L94.62 221.29Q94.62 219.75 93.82 218.96Q93.02 218.17 91.60 218.17Q90.21 218.17 89.39 218.96Q88.58 219.75 88.58 221.29L88.58 224.79Q88.58 226.33 89.39 227.12Q90.21 227.91 91.60 227.91" fill="white" fill-opacity="0.7"/>
<path d="M105.98 229.88Q103.70 229.88 102.33 228.52Q100.96 227.17 100.96 224.84L100.96 216.44L103.12 216.44L103.12 224.84Q103.12 226.28 103.89 227.13Q104.66 227.98 105.98 227.98Q107.32 227.98 108.10 227.13Q108.88 226.28 108.88 224.84L108.88 216.44L111.04 216.44L111.04 224.84Q111.04 227.17 109.65 228.52Q108.26 229.88 105.98 229.88" fill="white" fill-opacity="0.7"/>
<path d="M131.97 229.64L129.81 229.64L129.81 212.12L131.97 212.12L131.97 218.96L131.99 218.96Q132.16 217.64 133.07 216.92Q133.98 216.20 135.50 216.20Q137.49 216.20 138.66 217.42Q139.84 218.65 139.84 220.76L139.84 229.64L137.68 229.64L137.68 221.12Q137.68 219.63 136.92 218.83Q136.17 218.02 134.87 218.02Q133.53 218.02 132.75 218.86Q131.97 219.70 131.97 221.24" fill="white" fill-opacity="0.7"/>
<path d="M148.05 229.88Q146.01 229.88 144.81 228.74Q143.61 227.60 143.61 225.75Q143.61 224.53 144.16 223.62Q144.71 222.70 145.70 222.19Q146.68 221.67 147.95 221.67L152.03 221.67L152.03 220.64Q152.03 218.07 149.22 218.07Q147.98 218.07 147.21 218.53Q146.44 218.98 146.39 219.80L144.23 219.80Q144.35 218.24 145.68 217.22Q147.02 216.20 149.22 216.20Q151.62 216.20 152.91 217.35Q154.19 218.50 154.19 220.57L154.19 229.64L152.06 229.64L152.06 227.24L152.01 227.24Q151.82 228.46 150.78 229.17Q149.75 229.88 148.05 229.88M148.58 228.06Q150.16 228.06 151.10 227.29Q152.03 226.52 152.03 225.20L152.03 223.35L148.19 223.35Q147.14 223.35 146.48 223.99Q145.82 224.62 145.82 225.68Q145.82 226.78 146.55 227.42Q147.28 228.06 148.58 228.06" fill="white" fill-opacity="0.7"/>
<path d="M165.02 229.64L162.18 229.64L157.70 216.44L160.02 216.44L162.90 225.32Q163.17 226.11 163.36 226.84Q163.55 227.58 163.65 227.98Q163.77 227.58 163.94 226.84Q164.10 226.11 164.34 225.32L167.22 216.44L169.50 216.44" fill="white" fill-opacity="0.7"/>
<path d="MNaN 229.88Q175.67 229.88 174.24 228.48Q172.82 227.07 172.82 224.60L172.82 221.48Q172.82 219.01 174.24 217.60Q175.67 216.20 NaN 216.20Q179.56 216.20 180.72 216.82Q181.89 217.45 182.54 218.58Q183.18 219.70 183.18 221.24L183.18 223.59L174.93 223.59L174.93 224.84Q174.93 226.30 175.77 227.16Q176.61 228.01 NaN 228.01Q179.20 228.01 179.98 227.54Q180.76 227.07 180.93 226.28L183.09 226.28Q182.87 227.94 181.48 228.91Q180.09 229.88 NaN 229.88M174.93 221.24L174.93 221.91L181.07 221.91L181.07 221.24Q181.07 219.68 180.27 218.83Q179.46 217.98 NaN 217.98Q176.54 217.98 175.73 218.83Q174.93 219.68 174.93 221.24" fill="white" fill-opacity="0.7"/>
<path d="M205.65 229.88Q203.61 229.88 202.41 228.74Q201.21 227.60 201.21 225.75Q201.21 224.53 201.76 223.62Q202.31 222.70 203.30 222.19Q204.28 221.67 205.55 221.67L209.63 221.67L209.63 220.64Q209.63 218.07 206.82 218.07Q205.58 218.07 204.81 218.53Q204.04 218.98 203.99 219.80L201.83 219.80Q201.95 218.24 203.28 217.22Q204.62 216.20 206.82 216.20Q209.22 216.20 210.51 217.35Q211.79 218.50 211.79 220.57L211.79 229.64L209.66 229.64L209.66 227.24L209.61 227.24Q209.42 228.46 208.38 229.17Q207.35 229.88 205.65 229.88M206.18 228.06Q207.76 228.06 208.70 227.29Q209.63 226.52 209.63 225.20L209.63 223.35L205.79 223.35Q204.74 223.35 204.08 223.99Q203.42 224.62 203.42 225.68Q203.42 226.78 204.15 227.42Q204.88 228.06 206.18 228.06" fill="white" fill-opacity="0.7"/>
<path d="M218.37 229.64L216.21 229.64L216.21 216.44L218.37 216.44L218.37 218.96L218.39 218.96Q218.56 217.64 219.47 216.92Q220.38 216.20 221.90 216.20Q223.89 216.20 225.06 217.42Q226.24 218.65 226.24 220.76L226.24 229.64L224.08 229.64L224.08 221.14Q224.08 219.63 223.32 218.83Q222.57 218.02 221.27 218.02Q219.93 218.02 219.15 218.86Q218.37 219.70 218.37 221.24" fill="white" fill-opacity="0.7"/>
<path d="M234.93 233.96L232.67 233.96L234.62 228.82L229.70 216.44L232.02 216.44L235.14 224.60Q235.34 225.08 235.50 225.61Q235.67 226.14 235.74 226.52Q235.82 226.14 235.98 225.61Q236.15 225.08 236.32 224.60L239.22 216.44L241.50 216.44" fill="white" fill-opacity="0.7"/>
<path d="M269.39 233.96L267.23 233.96L267.23 230.12L267.28 227.12L267.21 227.12Q267.04 228.39 266.08 229.14Q265.12 229.88 263.63 229.88Q261.64 229.88 260.46 228.56Q259.29 227.24 259.29 224.96L259.29 221.10Q259.29 218.82 260.48 217.51Q261.66 216.20 263.63 216.20Q265.12 216.20 266.08 216.93Q267.04 217.66 267.21 218.96L267.23 218.96L267.23 216.44L269.39 216.44L269.39 233.96M264.35 228.01Q265.70 228.01 266.46 227.17Q267.23 226.33 267.23 224.84L267.23 221.24Q267.23 219.75 266.46 218.91Q265.70 218.07 264.35 218.07Q262.98 218.07 262.22 218.77Q261.45 219.46 261.45 221L261.45 225.08Q261.45 226.62 262.22 227.31Q262.98 228.01 264.35 228.01" fill="white" fill-opacity="0.7"/>
<path d="M278.78 229.88Q276.50 229.88 275.13 228.52Q273.76 227.17 273.76 224.84L273.76 216.44L275.92 216.44L275.92 224.84Q275.92 226.28 276.69 227.13Q277.46 227.98 278.78 227.98Q280.12 227.98 280.90 227.13Q281.68 226.28 281.68 224.84L281.68 216.44L283.84 216.44L283.84 224.84Q283.84 227.17 282.45 228.52Q281.06 229.88 278.78 229.88" fill="white" fill-opacity="0.7"/>
<path d="M293.20 229.88Q290.87 229.88 289.44 228.48Q288.02 227.07 288.02 224.60L288.02 221.48Q288.02 219.01 289.44 217.60Q290.87 216.20 293.20 216.20Q294.76 216.20 295.92 216.82Q297.09 217.45 297.74 218.58Q298.38 219.70 298.38 221.24L298.38 223.59L290.13 223.59L290.13 224.84Q290.13 226.30 290.97 227.16Q291.81 228.01 293.20 228.01Q294.40 228.01 295.18 227.54Q295.96 227.07 296.13 226.28L298.29 226.28Q298.07 227.94 296.68 228.91Q295.29 229.88 293.20 229.88M290.13 221.24L290.13 221.91L296.27 221.91L296.27 221.24Q296.27 219.68 295.47 218.83Q294.66 217.98 293.20 217.98Q291.74 217.98 290.93 218.83Q290.13 219.68 290.13 221.24" fill="white" fill-opacity="0.7"/>
<path d="M308.13 229.83L307.07 229.83Q304.86 229.83 303.65 228.84Q302.44 227.84 302.44 226.02L304.60 226.02Q304.60 226.93 305.25 227.44Q305.90 227.96 307.07 227.96L308.13 227.96Q309.33 227.96 309.99 227.43Q310.65 226.90 310.65 225.94Q310.65 224.24 309.09 224.02L305.44 223.50Q304.10 223.30 303.35 222.38Q302.61 221.46 302.61 219.94Q302.61 218.22 303.80 217.23Q304.98 216.25 307.07 216.25L308.13 216.25Q310.05 216.25 311.26 217.20Q312.47 218.14 312.57 219.68L310.38 219.68Q310.34 218.98 309.72 218.53Q309.11 218.07 308.13 218.07L307.07 218.07Q305.97 218.07 305.34 218.58Q304.72 219.08 304.72 219.94Q304.72 221.34 305.99 221.53L309.40 222.01Q312.76 222.49 312.76 225.94Q312.76 227.79 311.55 228.81Q310.34 229.83 308.13 229.83" fill="white" fill-opacity="0.7"/>
<path d="M327.16 229.64L323.32 229.64Q321.69 229.64 320.70 228.69Q319.72 227.74 319.72 226.16L319.72 218.41L315.93 218.41L315.93 216.44L319.72 216.44L319.72 212.72L321.88 212.72L321.88 216.44L327.28 216.44L327.28 218.41L321.88 218.41L321.88 226.16Q321.88 226.83 322.28 227.25Q322.67 227.67 323.32 227.67L327.16 227.67" fill="white" fill-opacity="0.7"/>
<path d="M342.52 229.64L331.24 229.64L331.24 227.67L335.92 227.67L335.92 218.41L331.72 218.41L331.72 216.44L338.08 216.44L338.08 227.67L342.52 227.67L342.52 229.64M336.76 214.06Q335.97 214.06 335.51 213.66Q335.06 213.25 335.06 212.55Q335.06 211.83 335.51 211.41Q335.97 210.99 336.76 210.99Q337.55 210.99 338.01 211.41Q338.46 211.83 338.46 212.55Q338.46 213.25 338.01 213.66Q337.55 214.06 336.76 214.06" fill="white" fill-opacity="0.7"/>
<path d="M350.80 229.83Q348.42 229.83 347.02 228.44Q345.62 227.05 345.62 224.55L345.62 221.53Q345.62 219.01 347.01 217.63Q348.40 216.25 350.80 216.25Q353.20 216.25 354.59 217.63Q355.98 219.01 355.98 221.53L355.98 224.55Q355.98 227.05 354.58 228.44Q353.18 229.83 350.80 229.83M350.80 227.91Q352.22 227.91 353.02 227.12Q353.82 226.33 353.82 224.79L353.82 221.29Q353.82 219.75 353.02 218.96Q352.22 218.17 350.80 218.17Q349.41 218.17 348.59 218.96Q347.78 219.75 347.78 221.29L347.78 224.79Q347.78 226.33 348.59 227.12Q349.41 227.91 350.80 227.91" fill="white" fill-opacity="0.7"/>
<path d="M362.37 229.64L360.21 229.64L360.21 216.44L362.37 216.44L362.37 218.96L362.39 218.96Q362.56 217.64 363.47 216.92Q364.38 216.20 365.90 216.20Q367.89 216.20 369.06 217.42Q370.24 218.65 370.24 220.76L370.24 229.64L368.08 229.64L368.08 221.14Q368.08 219.63 367.32 218.83Q366.57 218.02 365.27 218.02Q363.93 218.02 363.15 218.86Q362.37 219.70 362.37 221.24" fill="white" fill-opacity="0.7"/>
<path d="M380.13 229.83L379.07 229.83Q376.86 229.83 375.65 228.84Q374.44 227.84 374.44 226.02L376.60 226.02Q376.60 226.93 377.25 227.44Q377.90 227.96 379.07 227.96L380.13 227.96Q381.33 227.96 381.99 227.43Q382.65 226.90 382.65 225.94Q382.65 224.24 381.09 224.02L377.44 223.50Q376.10 223.30 375.35 222.38Q374.61 221.46 374.61 219.94Q374.61 218.22 375.80 217.23Q376.98 216.25 379.07 216.25L380.13 216.25Q382.05 216.25 383.26 217.20Q384.47 218.14 384.57 219.68L382.38 219.68Q382.34 218.98 381.72 218.53Q381.11 218.07 380.13 218.07L379.07 218.07Q377.97 218.07 377.34 218.58Q376.72 219.08 376.72 219.94Q376.72 221.34 377.99 221.53L381.40 222.01Q384.76 222.49 384.76 225.94Q384.76 227.79 383.55 228.81Q382.34 229.83 380.13 229.83" fill="white" fill-opacity="0.7"/>
<path d="M394.07 233.48L391.84 233.48L393.16 226.14L395.75 226.14" fill="white" fill-opacity="0.7"/>
<path d="M422.99 229.88Q420.59 229.88 419.15 228.54Q417.71 227.19 417.71 224.84L417.71 221.24Q417.71 218.89 419.15 217.54Q420.59 216.20 422.99 216.20Q425.27 216.20 426.68 217.42Q428.08 218.65 428.15 220.76L425.99 220.76Q425.92 219.49 425.13 218.80Q424.34 218.12 422.99 218.12Q421.58 218.12 420.72 218.92Q419.87 219.73 419.87 221.22L419.87 224.84Q419.87 226.33 420.72 227.14Q421.58 227.96 422.99 227.96Q424.34 227.96 425.13 227.26Q425.92 226.57 425.99 225.32L428.15 225.32Q428.08 227.43 426.68 228.66Q425.27 229.88 422.99 229.88" fill="white" fill-opacity="0.7"/>
<path d="M437.20 229.83Q434.82 229.83 433.42 228.44Q432.02 227.05 432.02 224.55L432.02 221.53Q432.02 219.01 433.41 217.63Q434.80 216.25 437.20 216.25Q439.60 216.25 440.99 217.63Q442.38 219.01 442.38 221.53L442.38 224.55Q442.38 227.05 440.98 228.44Q439.58 229.83 437.20 229.83M437.20 227.91Q438.62 227.91 439.42 227.12Q440.22 226.33 440.22 224.79L440.22 221.29Q440.22 219.75 439.42 218.96Q438.62 218.17 437.20 218.17Q435.81 218.17 434.99 218.96Q434.18 219.75 434.18 221.29L434.18 224.79Q434.18 226.33 434.99 227.12Q435.81 227.91 437.20 227.91" fill="white" fill-opacity="0.7"/>
<path d="M448.77 229.64L446.61 229.64L446.61 216.44L448.77 216.44L448.77 218.96L448.79 218.96Q448.96 217.64 449.87 216.92Q450.78 216.20 452.30 216.20Q454.29 216.20 455.46 217.42Q456.64 218.65 456.64 220.76L456.64 229.64L454.48 229.64L454.48 221.14Q454.48 219.63 453.72 218.83Q452.97 218.02 451.67 218.02Q450.33 218.02 449.55 218.86Q448.77 219.70 448.77 221.24" fill="white" fill-opacity="0.7"/>
<path d="M471.16 229.64L467.32 229.64Q465.69 229.64 464.70 228.69Q463.72 227.74 463.72 226.16L463.72 218.41L459.93 218.41L459.93 216.44L463.72 216.44L463.72 212.72L465.88 212.72L465.88 216.44L471.28 216.44L471.28 218.41L465.88 218.41L465.88 226.16Q465.88 226.83 466.28 227.25Q466.67 227.67 467.32 227.67L471.16 227.67" fill="white" fill-opacity="0.7"/>
<path d="M479.25 229.88Q477.21 229.88 476.01 228.74Q474.81 227.60 474.81 225.75Q474.81 224.53 475.36 223.62Q475.91 222.70 476.90 222.19Q477.88 221.67 479.15 221.67L483.23 221.67L483.23 220.64Q483.23 218.07 480.42 218.07Q479.18 218.07 478.41 218.53Q477.64 218.98 477.59 219.80L475.43 219.80Q475.55 218.24 476.88 217.22Q478.22 216.20 480.42 216.20Q482.82 216.20 484.11 217.35Q485.39 218.50 485.39 220.57L485.39 229.64L483.26 229.64L483.26 227.24L483.21 227.24Q483.02 228.46 481.98 229.17Q480.95 229.88 479.25 229.88M479.78 228.06Q481.36 228.06 482.30 227.29Q483.23 226.52 483.23 225.20L483.23 223.35L479.39 223.35Q478.34 223.35 477.68 223.99Q477.02 224.62 477.02 225.68Q477.02 226.78 477.75 227.42Q478.48 228.06 479.78 228.06" fill="white" fill-opacity="0.7"/>
<path d="M494.99 229.88Q492.59 229.88 491.15 228.54Q489.71 227.19 489.71 224.84L489.71 221.24Q489.71 218.89 491.15 217.54Q492.59 216.20 494.99 216.20Q497.27 216.20 498.68 217.42Q500.08 218.65 500.15 220.76L497.99 220.76Q497.92 219.49 497.13 218.80Q496.34 218.12 494.99 218.12Q493.58 218.12 492.72 218.92Q491.87 219.73 491.87 221.22L491.87 224.84Q491.87 226.33 492.72 227.14Q493.58 227.96 494.99 227.96Q496.34 227.96 497.13 227.26Q497.92 226.57 497.99 225.32L500.15 225.32Q500.08 227.43 498.68 228.66Q497.27 229.88 494.99 229.88" fill="white" fill-opacity="0.7"/>
<path d="M514.36 229.64L510.52 229.64Q508.89 229.64 507.90 228.69Q506.92 227.74 506.92 226.16L506.92 218.41L503.13 218.41L503.13 216.44L506.92 216.44L506.92 212.72L509.08 212.72L509.08 216.44L514.48 216.44L514.48 218.41L509.08 218.41L509.08 226.16Q509.08 226.83 509.48 227.25Q509.87 227.67 510.52 227.67L514.36 227.67" fill="white" fill-opacity="0.7"/>
<path d="M538 229.83Q535.62 229.83 534.22 228.44Q532.82 227.05 532.82 224.55L532.82 221.53Q532.82 219.01 534.21 217.63Q535.60 216.25 538 216.25Q540.40 216.25 541.79 217.63Q543.18 219.01 543.18 221.53L543.18 224.55Q543.18 227.05 541.78 228.44Q540.38 229.83 538 229.83M538 227.91Q539.42 227.91 540.22 227.12Q541.02 226.33 541.02 224.79L541.02 221.29Q541.02 219.75 540.22 218.96Q539.42 218.17 538 218.17Q536.61 218.17 535.79 218.96Q534.98 219.75 534.98 221.29L534.98 224.79Q534.98 226.33 535.79 227.12Q536.61 227.91 538 227.91" fill="white" fill-opacity="0.7"/>
<path d="M552.38 229.88Q550.10 229.88 548.73 228.52Q547.36 227.17 547.36 224.84L547.36 216.44L549.52 216.44L549.52 224.84Q549.52 226.28 550.29 227.13Q551.06 227.98 552.38 227.98Q553.72 227.98 554.50 227.13Q555.28 226.28 555.28 224.84L555.28 216.44L557.44 216.44L557.44 224.84Q557.44 227.17 556.05 228.52Q554.66 229.88 552.38 229.88" fill="white" fill-opacity="0.7"/>
<path d="M564.45 229.64L562.29 229.64L562.29 216.44L564.45 216.44L564.45 218.96L564.50 218.96Q564.66 217.69 565.58 216.94Q566.49 216.20 568.02 216.20Q570.09 216.20 571.20 217.44Q572.32 218.67 572.32 220.95L572.32 222.08L570.16 222.08L570.16 220.95Q570.16 218.07 567.35 218.07Q565.94 218.07 565.19 218.89Q564.45 219.70 564.45 221.24" fill="white" fill-opacity="0.7"/>
<path d="M595.70 229.88Q593.15 229.88 591.64 228.54Q590.13 227.19 590.13 224.84L592.29 224.84Q592.29 226.30 593.22 227.13Q594.16 227.96 595.70 227.96Q597.18 227.96 598.07 227.10Q598.96 226.23 598.96 224.84Q598.96 223.78 598.40 223Q597.83 222.22 596.78 221.94L594.11 221.19Q592.46 220.71 591.51 219.48Q590.56 218.24 590.56 216.56Q590.56 215.17 591.18 214.11Q591.81 213.06 592.94 212.47Q594.06 211.88 595.53 211.88Q597.02 211.88 598.16 212.47Q599.30 213.06 599.94 214.10Q600.59 215.14 600.59 216.51L598.43 216.51Q598.43 215.31 597.62 214.56Q596.80 213.80 595.53 213.80Q594.26 213.80 593.46 214.56Q592.67 215.31 592.67 216.51Q592.67 217.47 593.19 218.16Q593.70 218.84 594.64 219.10L597.38 219.87Q599.13 220.35 600.10 221.68Q601.07 223.02 601.07 224.84Q601.07 227.14 599.61 228.51Q598.14 229.88 595.70 229.88" fill="white" fill-opacity="0.7"/>
<path d="M609.98 229.88Q607.70 229.88 606.33 228.52Q604.96 227.17 604.96 224.84L604.96 216.44L607.12 216.44L607.12 224.84Q607.12 226.28 607.89 227.13Q608.66 227.98 609.98 227.98Q611.32 227.98 612.10 227.13Q612.88 226.28 612.88 224.84L612.88 216.44L615.04 216.44L615.04 224.84Q615.04 227.17 613.65 228.52Q612.26 229.88 609.98 229.88" fill="white" fill-opacity="0.7"/>
<path d="M621.57 233.96L619.41 233.96L619.41 216.44L621.57 216.44L621.57 218.96L621.59 218.96Q621.76 217.66 622.72 216.93Q623.68 216.20 625.17 216.20Q627.16 216.20 628.34 217.51Q629.51 218.82 629.51 221.10L629.51 224.96Q629.51 227.24 628.34 228.56Q627.16 229.88 625.17 229.88Q623.68 229.88 622.72 229.14Q621.76 228.39 621.59 227.12L621.52 227.12L621.57 230.12L621.57 233.96M624.45 228.01Q625.82 228.01 626.58 227.29Q627.35 226.57 627.35 224.96L627.35 221.12Q627.35 219.49 626.58 218.78Q625.82 218.07 624.45 218.07Q623.13 218.07 622.35 218.91Q621.57 219.75 621.57 221.24L621.57 224.84Q621.57 226.33 622.35 227.17Q623.13 228.01 624.45 228.01" fill="white" fill-opacity="0.7"/>
<path d="M635.97 233.96L633.81 233.96L633.81 216.44L635.97 216.44L635.97 218.96L635.99 218.96Q636.16 217.66 637.12 216.93Q638.08 216.20 639.57 216.20Q641.56 216.20 642.74 217.51Q643.91 218.82 643.91 221.10L643.91 224.96Q643.91 227.24 642.74 228.56Q641.56 229.88 639.57 229.88Q638.08 229.88 637.12 229.14Q636.16 228.39 635.99 227.12L635.92 227.12L635.97 230.12L635.97 233.96M638.85 228.01Q640.22 228.01 640.98 227.29Q641.75 226.57 641.75 224.96L641.75 221.12Q641.75 219.49 640.98 218.78Q640.22 218.07 638.85 218.07Q637.53 218.07 636.75 218.91Q635.97 219.75 635.97 221.24L635.97 224.84Q635.97 226.33 636.75 227.17Q637.53 228.01 638.85 228.01" fill="white" fill-opacity="0.7"/>
<path d="M653.20 229.83Q650.82 229.83 649.42 228.44Q648.02 227.05 648.02 224.55L648.02 221.53Q648.02 219.01 649.41 217.63Q650.80 216.25 653.20 216.25Q655.60 216.25 656.99 217.63Q658.38 219.01 658.38 221.53L658.38 224.55Q658.38 227.05 656.98 228.44Q655.58 229.83 653.20 229.83M653.20 227.91Q654.62 227.91 655.42 227.12Q656.22 226.33 656.22 224.79L656.22 221.29Q656.22 219.75 655.42 218.96Q654.62 218.17 653.20 218.17Q651.81 218.17 650.99 218.96Q650.18 219.75 650.18 221.29L650.18 224.79Q650.18 226.33 650.99 227.12Q651.81 227.91 653.20 227.91" fill="white" fill-opacity="0.7"/>
<path d="M665.25 229.64L663.09 229.64L663.09 216.44L665.25 216.44L665.25 218.96L665.30 218.96Q665.46 217.69 666.38 216.94Q667.29 216.20 668.82 216.20Q670.89 216.20 672 217.44Q673.12 218.67 673.12 220.95L673.12 222.08L670.96 222.08L670.96 220.95Q670.96 218.07 668.15 218.07Q666.74 218.07 665.99 218.89Q665.25 219.70 665.25 221.24" fill="white" fill-opacity="0.7"/>
<path d="M687.16 229.64L683.32 229.64Q681.69 229.64 680.70 228.69Q679.72 227.74 679.72 226.16L679.72 218.41L675.93 218.41L675.93 216.44L679.72 216.44L679.72 212.72L681.88 212.72L681.88 216.44L687.28 216.44L687.28 218.41L681.88 218.41L681.88 226.16Q681.88 226.83 682.28 227.25Q682.67 227.67 683.32 227.67L687.16 227.67" fill="white" fill-opacity="0.7"/>
<path d="M97.14 136.06L84.37 136.06L66.42 65.98L76.21 65.98L87.82 113.21Q88.98 117.72 89.79 121.90Q90.61 126.08 90.99 128.28Q91.28 126.08 92.19 121.85Q93.10 117.63 94.16 113.12L105.39 65.98L115.18 65.98L97.14 136.06M153.20 136.06L143.70 136.06L143.70 74.62L124.69 74.62L124.69 65.98L172.11 65.98L172.11 74.62L153.20 74.62L153.20 136.06M227.31 136.06L186.51 136.06L186.51 65.98L227.31 65.98L227.31 74.52L195.92 74.52L195.92 95.36L223.95 95.36L223.95 103.61L195.92 103.61L195.92 127.52L227.31 127.52L227.31 136.06M248.82 136.06L238.35 136.06L258.32 100.44L239.41 65.98L250.26 65.98L260.62 85.95Q261.49 87.68 262.40 89.50Q263.31 91.32 263.79 92.28Q264.27 91.32 265.14 89.50Q266 87.68 266.86 85.95L277.33 65.98L287.79 65.98L268.88 99.96L288.85 136.06L278.10 136.06L266.58 114.56Q265.71 112.83 264.85 110.96Q263.98 109.08 263.50 107.93Q263.02 109.08 262.16 110.96Q261.30 112.83 260.34 114.46L248.82 136.06M367.95 136.06L358.45 136.06L358.45 65.98L381.20 65.98Q387.92 65.98 392.82 68.57Q397.71 71.16 400.40 75.82Q403.09 80.48 403.09 86.91Q403.09 93.24 400.40 97.90Q397.71 102.56 392.77 105.15Q387.82 107.74 381.20 107.74L367.95 107.74L367.95 136.06M367.95 74.43L367.95 99.29L381.20 99.29Q386.77 99.29 390.03 95.88Q393.30 92.48 393.30 86.91Q393.30 81.24 390.03 77.84Q386.77 74.43 381.20 74.43L367.95 74.43M425.55 136.06L416.14 136.06L416.14 65.98L437.84 65.98Q444.27 65.98 449.07 68.52Q453.87 71.07 456.56 75.63Q459.25 80.19 459.25 86.33Q459.25 93.44 455.65 98.52Q452.05 103.61 446.10 105.72L460.21 136.06L449.74 136.06L436.40 106.78L425.55 106.78L425.55 136.06M425.55 74.43L425.55 98.33L437.84 98.33Q443.22 98.33 446.34 95.07Q449.46 91.80 449.46 86.43Q449.46 80.96 446.29 77.69Q443.12 74.43 437.84 74.43L425.55 74.43M513.10 136.06L474.90 136.06L474.90 127.42L489.20 127.42L489.20 74.62L474.90 74.62L474.90 65.98L513.10 65.98L513.10 74.62L498.80 74.62L498.80 127.42L513.10 127.42L513.10 136.06M552.37 137.02Q542.67 137.02 536.96 131.60Q531.25 126.17 531.25 116.67L531.25 85.28Q531.25 75.87 536.96 70.44Q542.67 65.02 552.37 65.02Q561.97 65.02 567.68 70.49Q573.39 75.96 573.39 85.28L563.89 85.28Q563.89 79.61 560.82 76.54Q557.74 73.47 552.37 73.47Q546.90 73.47 543.82 76.54Q540.75 79.61 540.75 85.28L540.75 116.67Q540.75 122.43 543.82 125.50Q546.90 128.57 552.37 128.57Q557.74 128.57 560.82 125.50Q563.89 122.43 563.89 116.67L573.39 116.67Q573.39 126.08 567.68 131.55Q561.97 137.02 552.37 137.02M628.30 136.06L590.10 136.06L590.10 127.42L604.40 127.42L604.40 74.62L590.10 74.62L590.10 65.98L628.30 65.98L628.30 74.62LNaN 74.62LNaN 127.42L628.30 127.42L628.30 136.06M655.18 136.06L646.26 136.06L646.26 65.98L658.54 65.98L679.47 125.12Q679.18 122.62 678.94 118.92Q678.70 115.23 678.56 111.24Q678.42 107.26 678.42 103.71L678.42 65.98L687.44 65.98L687.44 136.06L675.06 136.06L654.32 76.92Q654.51 79.42 654.70 83.02Q654.90 86.62 655.04 90.56Q655.18 94.49 655.18 97.95L655.18 136.06M724.78 137.02Q715.09 137.02 709.38 131.60Q703.66 126.17 703.66 116.67L703.66 85.28Q703.66 75.87 709.38 70.44Q715.09 65.02 724.78 65.02Q734.38 65.02 740.10 70.49Q745.81 75.96 745.81 85.28L736.30 85.28Q736.30 79.61 733.23 76.54Q730.16 73.47 724.78 73.47Q719.31 73.47 716.24 76.54Q713.17 79.61 713.17 85.28L713.17 116.67Q713.17 122.43 716.24 125.50Q719.31 128.57 724.78 128.57Q730.16 128.57 733.23 125.50Q736.30 122.43 736.30 116.67L736.30 107.55L722.67 107.55L722.67 99.10L745.81 99.10L745.81 116.67Q745.81 126.08 740.10 131.55Q734.38 137.02 724.78 137.02M828.85 136.06L819.34 136.06L819.34 65.98L828.85 65.98L828.85 95.55L850.35 95.55L850.35 65.98L859.86 65.98L859.86 136.06L850.35 136.06L850.35 104.19L828.85 104.19L828.85 136.06M897.20 137.02Q887.31 137.02 881.98 131.55Q876.66 126.08 876.66 116.67L876.66 65.98L886.16 65.98L886.16 116.67Q886.16 122.24 888.90 125.40Q891.63 128.57 897.20 128.57Q902.67 128.57 905.50 125.40Q908.34 122.24 908.34 116.67L908.34 65.98L917.84 65.98L917.84 116.67Q917.84 126.17 912.51 131.60Q907.18 137.02 897.20 137.02M956.14 136.06L934.54 136.06L934.54 65.98L954.80 65.98Q964.50 65.98 970.11 70.83Q975.73 75.68 975.73 84.12Q975.73 89.60 972.32 93.87Q968.91 98.14 963.54 99.10L963.54 99.39Q967.57 99.87 970.69 102.27Q973.81 104.67 975.58 108.36Q977.36 112.06 977.36 116.48Q977.36 125.50 971.65 130.78Q965.94 136.06 956.14 136.06M943.86 74.33L943.86 95.55L954.70 95.55Q960.08 95.55 963.15 92.72Q966.22 89.88 966.22 84.99Q966.22 80 963.15 77.16Q960.08 74.33 954.80 74.33L943.86 74.33M943.86 103.61L943.86 127.71L955.28 127.71Q961.14 127.71 964.50 124.59Q967.86 121.47 967.86 116.09Q967.86 110.52 964.50 107.07Q961.14 103.61 955.28 103.61" fill="url(#paint2_linear_0_1)"/>
<g id="Group 1">
<rect id="Rectangle 1" x="26" y="168" width="12" height="184" rx="5" fill="url(#paint3_linear_0_1)" fill-opacity="0.9"/>
</g>
<g id="Group 1_2">
<rect id="Rectangle 2" x="26" y="38" width="12" height="119" rx="5" fill="url(#paint4_linear_0_1)" fill-opacity="0.9"/>
</g>
<ellipse id="Ellipse 1" cx="148.5" cy="573" rx="215.5" ry="214" fill="url(#paint5_linear_0_1)" fill-opacity="0.4"/>
<rect id="Rectangle 3" x="1229" y="48" width="300" height="300" rx="25" fill="#FFFBFB" fill-opacity="0.9"/>
<g id="placeholder-logo"><g transform="translate(1229,48) translate(0.0,60.0) scale(1.2000)"><g fill="#666666">
  <path d="m88.05,27.65c-3.15,4 -3.2,51.2 -0.05,54.35c2.75,2.75 71.7,3.15 74.45,0.45c2.85,-2.9 2.3,-53.85 -0.65,-55.9c-1.95,-1.35 -7.15,-1.55 -36.95,-1.55l-34.7,0l-2.1,2.65zm69.45,3.35c0.65,0 1,8.6 1,23.75l0,23.75l-33,0l-33,0l-0.25,-23c-0.15,-12.6 -0.1,-23.45 0.15,-24.1c0.35,-0.85 8.9,-1.05 32.25,-0.75c17.55,0.2 32.3,0.35 32.85,0.35z"/>
  <path d="m99.15,37.3c-6.85,7.35 4.25,17.35 11.4,10.25c1.35,-1.35 2.45,-3.65 2.45,-5.05c0,-6.45 -9.35,-9.95 -13.85,-5.2z"/>
  <path d="m135,42.5c-0.7,0.85 -5.25,5.15 -10.1,9.6l-8.85,8.1l-3.2,-3.2l-3.15,-3.15l-6.35,6.3c-5.55,5.5 -6.35,6.75 -6.35,10.05l0,3.8l28.5,0l28.5,0l0,-8.6l0,-8.55l-8.15,-7.7c-9.35,-8.85 -9.15,-8.7 -10.85,-6.65zm7.25,15.2c0.95,0.9 1.75,2.9 1.75,4.45c6.35,-5.05 4.75,-7.15 4.9,-11.55c0.95,0 0,0 0,0l-6.65,7.1z"/>
  <path d="m53.65,110.75c0.1,4.8 0.45,8.65 0.75,8.5c0.35,-0.15 1.3,-0.25 2.1,-0.25c1.1,0 1.5,-1.2 1.5,-4.75l0,-4.75l3.25,5c4.9,7.5 6.2,6.75 6.55,-3.75c0.25,-8.15 0.15,-8.75 -1.7,-8.75c-1.65,0 -2.05,0.8 -2.3,4.75l-0.3,4.75l-2.8,-4.75c-4.85,-8.25 -7.25,-6.9 -7.05,4z"/>
  <path d="m91,108.9c0,9.65 0.3,10.1 6.1,10.1c5.8,0 7.15,-2.65 1.65,-3.2l-3.25,-0.3l-0.3,-6.75c-0.25,-5.95 -0.55,-6.75 -2.25,-6.75c-1.75,0 -1.95,0.7 -1.95,6.9z"/>
  <path d="m151,102.45c0,0.25 1,2.15 2.25,4.2c1.2,2.1 2.45,5.8 2.75,8.25c0.65,5.9 4,6.95 4,1.25c0.05,-2.1 1.25,-5.85 2.95,-8.9l2.9,-5.25l-2.5,0c-1.8,0 -2.8,0.85 -3.75,3.1l-1.3,3.05l-1.25,-3.05c-1.1,-2.6 -6.05,-4.8 -6.05,-2.65z"/>
  <path d="m191,107.45c0,9.05 3.4,8.85 4.25,-0.2c0.45,-5 0.35,-5.25 -1.9,-5.25c-2.2,0 -2.35,0.4 -2.35,5.45z"/>
  <path d="m180.8,104.75c-1.3,5.35 0.65,13.6 3.45,14.35c2.3,0.6 2.75,0.4 2.75,-1.2c0,-1.05 -0.45,-1.9 -1,-1.9c-0.55,0 -1,-1.6 -1,-3.5c0,-1.95 0.45,-3.5 1,-3.5c0.55,0 1,-0.7 1,-1.5c0,-0.85 -0.45,-1.5 -1,-1.5c-0.55,0 -1,-0.7 -1,-1.5c0,-2.1 -3.65,-1.9 -4.2,0.25z"/>
  <path d="m71.55,106.55c-2.2,2.25 -2.05,9.7 0.3,11.8c4.5,4.1 10.15,0.75 10.15,-6.1c0,-4.85 -2,-7.25 -6,-7.25c-1.55,0 -3.55,0.7 -4.45,1.55zm6.25,5.8c0.25,3.05 0,3.65 -1.6,3.65c-2.3,0 -3.25,-2.65 -2.05,-5.85c1.25,-3.35 3.3,-2.1 3.65,2.2z"/>
  <path d="m105.75,106.1c-2.5,1.45 -2.45,9.95 0.1,12.25c4.3,3.9 10.15,0.35 10.15,-6.2c0,-6 -5.15,-9.05 -10.25,-6.05zm6.05,6.25c0.25,3.05 0,3.65 -1.6,3.65c-2.3,0 -3.25,-2.65 -2.05,-5.85c1.25,-3.35 3.3,-2.1 3.65,2.2z"/>
  <path d="m119.2,106.2c-3.8,3.8 -0.4,12.55 4.4,11.35c1.9,-0.45 2.45,-0.3 2.15,0.65c-0.25,0.7 -1.55,1.2 -2.85,1.1c-4.05,-0.3 -5.35,0.45 -3.85,2.25c0.85,1.05 2.6,1.45 5.35,1.25l4.1,-0.3l0.3,-8.75l0.3,-8.75l-4.35,0c-2.4,0 -4.9,0.55 -5.55,1.2zm6.6,4.45c0.4,2.85 -2.15,4.85 -3.75,2.95c-0.9,-1.1 -0.9,-2 -0.05,-3.6c1.35,-2.5 3.4,-2.15 3.8,0.65z"/>
  <path d="m133.55,106.55c-2.2,2.25 -2.05,9.7 0.3,11.8c4.5,4.1 10.15,0.75 10.15,-6.1c0,-4.85 -2,-7.25 -6,-7.25c-1.55,0 -3.55,0.7 -4.45,1.55zm6.25,5.8c0.25,3.05 0,3.65 -1.6,3.65c-2.3,0 -3.25,-2.65 -2.05,-5.85c1.25,-3.35 3.3,-2.1 3.65,2.2z"/>
  <path d="m167.65,106.85c-3.9,4.3 -0.75,13.15 4.7,13.15c2.4,0 5.65,-2.75 5.65,-4.85c0,-1.4 -2.65,-1.55 -3.5,-0.15c-0.95,1.55 -4.5,1.15 -4.5,-0.5c0,-1.1 1.1,-1.5 4,-1.5c3.15,0 4,-0.35 4,-1.8c0,-5.3 -6.85,-8.25 -10.35,-4.35z"/>
  <path d="m191,117.5c0,2.15 0.4,2.6 2.25,2.3c1.5,-0.2 2.25,-1 2.25,-2.3c0,-1.3 -0.75,-2.1 -2.25,-2.3c-1.85,-0.3 -2.25,0.15 -2.25,2.3z"/>
 </g></g></g>
</g>
<defs>
<linearGradient id="paint0_linear_0_1" x1="0" y1="198" x2="1584" y2="198" gradientUnits="userSpaceOnUse">
<stop stop-color="#3D052C"/>
<stop offset="1"/>
</linearGradient>
<linearGradient id="paint1_linear_0_1" x1="323" y1="-224" x2="323" y2="352" gradientUnits="userSpaceOnUse">
<stop stop-color="#28F6F2" stop-opacity="0.4"/>
<stop offset="1" stop-color="#17908E" stop-opacity="0.7"/>
</linearGradient>
<linearGradient id="paint2_linear_0_1" x1="148.5" y1="38" x2="148.5" y2="140" gradientUnits="userSpaceOnUse">
<stop stop-color="white"/>
<stop offset="1" stop-color="#999999"/>
</linearGradient>
<linearGradient id="paint3_linear_0_1" x1="38" y1="260" x2="26" y2="260" gradientUnits="userSpaceOnUse">
<stop stop-color="#D9D9D9"/>
<stop offset="1" stop-color="#737373"/>
</linearGradient>
<linearGradient id="paint4_linear_0_1" x1="38" y1="97.5" x2="26" y2="97.5" gradientUnits="userSpaceOnUse">
<stop stop-color="#D9D9D9"/>
<stop offset="1" stop-color="#737373"/>
</linearGradient>
<linearGradient id="paint5_linear_0_1" x1="27.5" y1="434.5" x2="148.5" y2="787" gradientUnits="userSpaceOnUse">
<stop stop-color="#2E21BC"/>
<stop offset="1" stop-color="#150F56"/>
</linearGradient>
<clipPath id="clip0_0_1">
<rect width="1584" height="396" fill="white"/>
</clipPath>
</defs>
</svg>
